<svg width="30" height="30" viewBox="0 0 30 30" fill="none" xmlns="http://www.w3.org/2000/svg">
<path d="M26.8307 8.98298H14.0789C13.4575 8.98298 12.9539 8.47907 12.9539 7.85798C12.9539 7.23659 13.4578 6.73298 14.0789 6.73298H26.8304C27.4518 6.73298 27.9554 7.23689 27.9554 7.85798C27.9557 8.47907 27.452 8.98298 26.8307 8.98298ZM9.88681 21.6861C9.33984 21.6861 8.86025 21.2865 8.77588 20.729L6.12099 3.18278C6.02812 2.56843 6.45088 1.99509 7.06523 1.90192C7.67871 1.81052 8.25293 2.23181 8.34609 2.84616L11.001 20.3924C11.0938 21.0067 10.6711 21.5801 10.0567 21.6732C9.99961 21.682 9.94277 21.6861 9.88681 21.6861Z" fill="url(#paint0_radial_188_2792)"/>
<path d="M24.1351 21.6861C24.0557 21.6861 23.9748 21.6777 23.8939 21.6601C23.2869 21.5274 22.9022 20.9277 23.035 20.3206L25.8123 7.6046C25.9447 6.99757 26.5438 6.61144 27.1515 6.74562C27.7585 6.87833 28.1432 7.47775 28.0105 8.08478L25.2331 20.8008C25.1183 21.327 24.6524 21.6861 24.1351 21.6861ZM7.21406 4.13995H3.08848C2.46709 4.13995 1.96348 3.63605 1.96348 3.01495C1.96348 2.39386 2.46738 1.88995 3.08848 1.88995H7.21406C7.83545 1.88995 8.33906 2.39386 8.33906 3.01495C8.33906 3.63605 7.83545 4.13995 7.21406 4.13995Z" fill="url(#paint1_radial_188_2792)"/>
<path d="M23.9282 21.7157H10.0515C9.43008 21.7157 8.92647 21.2118 8.92647 20.5907C8.92647 19.9696 9.43037 19.4657 10.0515 19.4657H23.9282C24.5496 19.4657 25.0532 19.9696 25.0532 20.5907C25.0532 21.2118 24.5496 21.7157 23.9282 21.7157ZM20.3487 15.22H9.09727C8.47588 15.22 7.97227 14.7161 7.97227 14.095C7.97227 13.4736 8.47617 12.97 9.09727 12.97H20.3487C20.9701 12.97 21.4737 13.4739 21.4737 14.095C21.474 14.7164 20.9701 15.22 20.3487 15.22Z" fill="url(#paint2_radial_188_2792)"/>
<path d="M7.57676 25.86C7.57676 26.1555 7.63497 26.4482 7.74805 26.7212C7.86114 26.9942 8.0269 27.2423 8.23586 27.4512C8.44481 27.6602 8.69288 27.8259 8.9659 27.939C9.23892 28.0521 9.53154 28.1103 9.82705 28.1103C10.1226 28.1103 10.4152 28.0521 10.6882 27.939C10.9612 27.8259 11.2093 27.6602 11.4182 27.4512C11.6272 27.2423 11.793 26.9942 11.9061 26.7212C12.0191 26.4482 12.0773 26.1555 12.0773 25.86C12.0773 25.5645 12.0191 25.2719 11.9061 24.9989C11.793 24.7259 11.6272 24.4778 11.4182 24.2688C11.2093 24.0599 10.9612 23.8941 10.6882 23.781C10.4152 23.6679 10.1226 23.6097 9.82705 23.6097C9.53154 23.6097 9.23892 23.6679 8.9659 23.781C8.69288 23.8941 8.44481 24.0599 8.23586 24.2688C8.0269 24.4778 7.86114 24.7259 7.74805 24.9989C7.63497 25.2719 7.57676 25.5645 7.57676 25.86Z" fill="url(#paint3_radial_188_2792)"/>
<path d="M19.66 25.86C19.66 26.4568 19.897 27.0292 20.3191 27.4512C20.7411 27.8732 21.3134 28.1103 21.9103 28.1103C22.5071 28.1103 23.0794 27.8732 23.5014 27.4512C23.9235 27.0292 24.1605 26.4568 24.1605 25.86C24.1605 25.2632 23.9235 24.6908 23.5014 24.2688C23.0794 23.8468 22.5071 23.6097 21.9103 23.6097C21.3134 23.6097 20.7411 23.8468 20.3191 24.2688C19.897 24.6908 19.66 25.2632 19.66 25.86Z" fill="url(#paint4_radial_188_2792)"/>
<defs>
<radialGradient id="paint0_radial_188_2792" cx="0" cy="0" r="1" gradientUnits="userSpaceOnUse" gradientTransform="translate(7.8421 5.93878) rotate(31.9545) scale(21.2531 120.261)">
<stop stop-color="#914BEC"/>
<stop offset="1" stop-color="#507AF6"/>
</radialGradient>
<radialGradient id="paint1_radial_188_2792" cx="0" cy="0" r="1" gradientUnits="userSpaceOnUse" gradientTransform="translate(4.03278 5.93917) rotate(27.5939) scale(24.2828 125.613)">
<stop stop-color="#914BEC"/>
<stop offset="1" stop-color="#507AF6"/>
</radialGradient>
<radialGradient id="paint2_radial_188_2792" cx="0" cy="0" r="1" gradientUnits="userSpaceOnUse" gradientTransform="translate(9.3279 14.7589) rotate(19.4154) scale(14.9486 59.0559)">
<stop stop-color="#914BEC"/>
<stop offset="1" stop-color="#507AF6"/>
</radialGradient>
<radialGradient id="paint3_radial_188_2792" cx="0" cy="0" r="1" gradientUnits="userSpaceOnUse" gradientTransform="translate(7.93395 24.5303) rotate(34.5425) scale(4.50983 26.5422)">
<stop stop-color="#914BEC"/>
<stop offset="1" stop-color="#507AF6"/>
</radialGradient>
<radialGradient id="paint4_radial_188_2792" cx="0" cy="0" r="1" gradientUnits="userSpaceOnUse" gradientTransform="translate(20.0171 24.5303) rotate(34.5425) scale(4.50983 26.5422)">
<stop stop-color="#914BEC"/>
<stop offset="1" stop-color="#507AF6"/>
</radialGradient>
</defs>
</svg>
