<svg width="16" height="16" viewBox="0 0 16 16" fill="none" xmlns="http://www.w3.org/2000/svg">
<path d="M3.51228 14.5608L11.5642 15.9541C13.0089 16.2037 13.887 15.4204 13.887 13.8746V5.29988C13.887 3.88578 13.1434 3.37282 11.7059 3.13021L3.8947 1.7785C2.81828 1.59134 2.11719 2.16668 2.11719 3.20646V12.9873C2.11719 13.8815 2.58458 14.4014 3.51228 14.5608ZM3.78847 13.4587C3.42731 13.4032 3.25735 13.1952 3.25735 12.8278V3.39362C3.25735 3.0193 3.51228 2.83214 3.93011 2.90146L11.6492 4.22544C12.3644 4.35715 12.7468 4.64135 12.7468 5.28601V13.7567C12.7468 14.54 12.2795 14.9351 11.5146 14.7965L3.78847 13.4587ZM12.1166 3.98282H13.2567V2.36078C13.2567 0.905092 12.2582 0.204975 10.5798 0.496111L3.17944 1.7785L3.60435 2.74203L10.9835 1.54282C11.6917 1.42498 12.1166 1.71611 12.1166 2.31918V3.98282ZM5.02778 5.95144L10.4878 6.8942C10.8206 6.94962 11.026 6.74863 11.026 6.45748C11.026 6.19408 10.8914 6.05543 10.6436 6.00692L5.2119 5.07806C4.88614 5.0226 4.65953 5.20976 4.65953 5.49397C4.65953 5.73658 4.79408 5.90988 5.02778 5.95144ZM5.02778 8.65491L10.4878 9.59761C10.8206 9.65309 11.026 9.45204 11.026 9.16089C11.026 8.89749 10.8914 8.75884 10.6436 8.71033L5.2119 7.78148C4.88614 7.72599 4.65953 7.91321 4.65953 8.19737C4.65953 8.44001 4.79408 8.61327 5.02778 8.65491Z" fill="#F4F5F9"/>
</svg>
