<svg width="42" height="42" viewBox="0 0 42 42" fill="none" xmlns="http://www.w3.org/2000/svg">
<rect opacity="0.2" width="42" height="42" rx="21" fill="white"/>
<g opacity="0.1">
<path fill-rule="evenodd" clip-rule="evenodd" d="M21 19.5C22.1935 19.5 23.3381 19.0259 24.182 18.182C25.0259 17.3381 25.5 16.1935 25.5 15C25.5 13.8065 25.0259 12.6619 24.182 11.818C23.3381 10.9741 22.1935 10.5 21 10.5C19.8065 10.5 18.6619 10.9741 17.818 11.818C16.9741 12.6619 16.5 13.8065 16.5 15C16.5 16.1935 16.9741 17.3381 17.818 18.182C18.6619 19.0259 19.8065 19.5 21 19.5V19.5ZM10.5 33C10.5 31.6211 10.7716 30.2557 11.2993 28.9818C11.8269 27.7079 12.6004 26.5504 13.5754 25.5754C14.5504 24.6004 15.7079 23.8269 16.9818 23.2993C18.2557 22.7716 19.6211 22.5 21 22.5C22.3789 22.5 23.7443 22.7716 25.0182 23.2993C26.2921 23.8269 27.4496 24.6004 28.4246 25.5754C29.3996 26.5504 30.1731 27.7079 30.7007 28.9818C31.2284 30.2557 31.5 31.6211 31.5 33H10.5Z" fill="url(#paint0_radial_2008_5180)"/>
</g>
<path d="M7.33977 16.72V23.632H10.9638V25H5.76776V16.72H7.33977ZM11.2702 19.9C11.2702 17.704 12.2782 16.6 14.2822 16.6C15.2062 16.6 15.9262 16.852 16.4662 17.368C17.0062 17.884 17.2702 18.736 17.2702 19.9V21.796C17.2702 22.96 16.9942 23.8 16.4542 24.316C15.9022 24.832 15.1582 25.096 14.2342 25.096C12.2542 25.096 11.2702 23.992 11.2702 21.796V19.9ZM15.3502 23.224C15.5782 22.924 15.6982 22.432 15.6982 21.772V19.984C15.6982 19.276 15.5782 18.772 15.3502 18.448C15.1222 18.136 14.7622 17.98 14.2822 17.98C13.7782 17.98 13.4182 18.136 13.1902 18.436C12.9622 18.748 12.8542 19.264 12.8542 19.984V21.772C12.8542 22.456 12.9622 22.936 13.1902 23.236C13.4182 23.536 13.7782 23.692 14.2822 23.692C14.7622 23.692 15.1222 23.536 15.3502 23.224ZM18.3455 19.9C18.3455 17.704 19.3535 16.6 21.3815 16.6C22.2815 16.6 23.0015 16.84 23.5415 17.308C24.0815 17.788 24.3455 18.448 24.3455 19.288V19.372H22.7735V19.288C22.7735 18.916 22.6535 18.604 22.4135 18.352C22.1615 18.1 21.8135 17.98 21.3695 17.98C20.8655 17.98 20.5055 18.136 20.2775 18.448C20.0495 18.76 19.9295 19.276 19.9295 19.984V21.772C19.9295 22.456 20.0495 22.936 20.3015 23.236C20.5415 23.536 20.9135 23.692 21.4295 23.692C21.9095 23.692 22.2575 23.572 22.4855 23.32C22.7015 23.068 22.8095 22.696 22.8095 22.192V21.796H21.3455V20.5H24.3455V21.916C24.3455 24.04 23.3495 25.096 21.3575 25.096C19.3535 25.096 18.3455 23.992 18.3455 21.796V19.9ZM29.6779 16.72V25H28.1059V16.72H29.6779ZM37.2348 25H35.6628L32.6148 19.828V25H31.0428V16.72H32.6148L35.6628 21.904V16.72H37.2348V25Z" fill="url(#paint1_radial_2008_5180)"/>
<defs>
<radialGradient id="paint0_radial_2008_5180" cx="0" cy="0" r="1" gradientUnits="userSpaceOnUse" gradientTransform="translate(12.1667 15.1023) rotate(36.4104) scale(21.5378 129.646)">
<stop stop-color="#914BEC"/>
<stop offset="1" stop-color="#507AF6"/>
</radialGradient>
<radialGradient id="paint1_radial_2008_5180" cx="0" cy="0" r="1" gradientUnits="userSpaceOnUse" gradientTransform="translate(7.61905 17.4545) rotate(14.0534) scale(28.0785 83.3451)">
<stop stop-color="#914BEC"/>
<stop offset="1" stop-color="#507AF6"/>
</radialGradient>
</defs>
</svg>
