<svg width="30" height="30" viewBox="0 0 30 30" fill="none" xmlns="http://www.w3.org/2000/svg">
<path d="M21 13.5C21.9849 13.5 22.9602 13.694 23.8701 14.0709C24.7801 14.4478 25.6069 15.0003 26.3033 15.6967C26.9997 16.3931 27.5522 17.2199 27.9291 18.1299C28.306 19.0398 28.5 20.0151 28.5 21C28.5 21.9849 28.306 22.9602 27.9291 23.8701C27.5522 24.7801 26.9997 25.6069 26.3033 26.3033C25.6069 26.9997 24.7801 27.5522 23.8701 27.9291C22.9602 28.306 21.9849 28.5 21 28.5C19.0109 28.5 17.1032 27.7098 15.6967 26.3033C14.2902 24.8968 13.5 22.9891 13.5 21C13.5 19.0109 14.2902 17.1032 15.6967 15.6967C17.1032 14.2902 19.0109 13.5 21 13.5ZM21.9 3C22.8548 3 23.7705 3.37928 24.4456 4.05442C25.1207 4.72955 25.5 5.64522 25.5 6.6L25.5015 12.3495C24.7892 11.9777 24.0334 11.6961 23.2515 11.511L23.25 6.6C23.25 6.27128 23.1302 5.95384 22.9128 5.70723C22.6955 5.46061 22.3956 5.30177 22.0695 5.2605L21.9 5.25H6.6C6.27128 5.24996 5.95384 5.36985 5.70723 5.58719C5.46061 5.80453 5.30177 6.10438 5.2605 6.4305L5.25 6.6V23.4C5.24996 23.7287 5.36985 24.0462 5.58719 24.2928C5.80453 24.5394 6.10438 24.6982 6.4305 24.7395L6.6 24.75H11.997C12.336 25.563 12.7815 26.319 13.3155 27H6.6C5.64522 27 4.72955 26.6207 4.05442 25.9456C3.37928 25.2705 3 24.3548 3 23.4V6.6C3 5.64522 3.37928 4.72955 4.05442 4.05442C4.72955 3.37928 5.64522 3 6.6 3H21.9ZM21 15.75C19.6076 15.75 18.2723 16.3031 17.2877 17.2877C16.3031 18.2723 15.75 19.6076 15.75 21C15.75 22.3924 16.3031 23.7277 17.2877 24.7123C18.2723 25.6969 19.6076 26.25 21 26.25C22.3924 26.25 23.7277 25.6969 24.7123 24.7123C25.6969 23.7277 26.25 22.3924 26.25 21C26.25 19.6076 25.6969 18.2723 24.7123 17.2877C23.7277 16.3031 22.3924 15.75 21 15.75ZM21 16.662C21.2719 16.662 21.5345 16.7605 21.7394 16.9392C21.9443 17.1178 22.0775 17.3647 22.1145 17.634L22.125 17.787V20.088H23.55C23.8223 20.0881 24.0853 20.187 24.2903 20.3663C24.4952 20.5456 24.6282 20.7931 24.6645 21.063L24.675 21.213C24.6754 21.4851 24.5771 21.7481 24.3983 21.9533C24.2196 22.1585 23.9726 22.292 23.703 22.329L23.55 22.3395H21C20.7281 22.3395 20.4655 22.241 20.2606 22.0623C20.0557 21.8837 19.9225 21.6368 19.8855 21.3675L19.875 21.2145V17.787C19.875 17.4886 19.9935 17.2025 20.2045 16.9915C20.4155 16.7805 20.7016 16.662 21 16.662ZM12.633 12.75C12.918 12.7501 13.1924 12.8584 13.4007 13.053C13.609 13.2476 13.7356 13.5139 13.755 13.7983C13.7745 14.0827 13.6852 14.3638 13.5054 14.5849C13.3255 14.8061 13.0684 14.9506 12.786 14.9895L12.633 15H8.133C7.84797 14.9999 7.57359 14.8916 7.36531 14.697C7.15704 14.5024 7.03039 14.2361 7.01096 13.9517C6.99153 13.6673 7.08077 13.3862 7.26065 13.1651C7.44053 12.9439 7.69763 12.7994 7.98 12.7605L8.133 12.75H12.633ZM17.829 8.25C18.114 8.25009 18.3884 8.35837 18.5967 8.55296C18.805 8.74755 18.9316 9.01395 18.951 9.29832C18.9705 9.58269 18.8812 9.86384 18.7014 10.0849C18.5215 10.3061 18.2644 10.4506 17.982 10.4895L17.829 10.5H8.133C7.84797 10.4999 7.57359 10.3916 7.36531 10.197C7.15704 10.0024 7.03039 9.73605 7.01096 9.45168C6.99153 9.16731 7.08077 8.88616 7.26065 8.66505C7.44053 8.44394 7.69763 8.29935 7.98 8.2605L8.133 8.25H17.829Z" fill="url(#paint0_radial_188_2680)"/>
<defs>
<radialGradient id="paint0_radial_188_2680" cx="0" cy="0" r="1" gradientUnits="userSpaceOnUse" gradientTransform="translate(5.02381 8.21591) rotate(34.5425) scale(25.5524 150.386)">
<stop stop-color="#914BEC"/>
<stop offset="1" stop-color="#507AF6"/>
</radialGradient>
</defs>
</svg>
