<svg width="30" height="30" viewBox="0 0 30 30" fill="none" xmlns="http://www.w3.org/2000/svg">
<path d="M15 2.40002C22.884 2.40002 29.3333 7.89869 29.3333 14.768C29.3333 15.0332 29.228 15.2876 29.0404 15.4751C28.8529 15.6627 28.5985 15.768 28.3333 15.768C28.0681 15.768 27.8138 15.6627 27.6262 15.4751C27.4387 15.2876 27.3333 15.0332 27.3333 14.768C27.3333 9.08002 21.844 4.40002 15 4.40002C8.156 4.40002 2.66666 9.08002 2.66666 14.768C2.66666 16.9574 3.476 19.0454 4.968 20.7947C5.12227 20.9758 5.2069 21.2061 5.20666 21.444L5.20533 25.8707L8.824 23.9867C9.04556 23.871 9.30243 23.8424 9.544 23.9067L9.684 23.956C9.95273 24.0719 10.2216 24.1875 10.4907 24.3027C11.84 24.8627 12.9667 25.1374 14.3653 25.1374C14.6305 25.1374 14.8849 25.2427 15.0724 25.4302C15.26 25.6178 15.3653 25.8721 15.3653 26.1374C15.3653 26.4026 15.26 26.6569 15.0724 26.8445C14.8849 27.032 14.6305 27.1374 14.3653 27.1374C12.6707 27.1374 11.2987 26.804 9.72533 26.1507C9.57861 26.0896 9.43239 26.0274 9.28666 25.964L9.324 25.98L5.644 27.8987C5.27962 28.0889 4.85782 28.1377 4.45961 28.0359C4.06141 27.934 3.71491 27.6885 3.48666 27.3467L3.39466 27.1907C3.27089 26.9527 3.20639 26.6883 3.20666 26.42L3.20533 21.8014L3.15333 21.7387C1.64133 19.8267 0.773331 17.5787 0.675997 15.2134L0.666664 14.768C0.666664 7.89869 7.116 2.40002 15 2.40002ZM23 16.4C23.6267 16.4 24.1333 16.9067 24.1333 17.5334V20.9334H27.5333C27.7859 20.9339 28.0311 21.0189 28.2299 21.1747C28.4287 21.3305 28.5697 21.5482 28.6307 21.7934L28.6587 21.936L28.6667 22.0667C28.6667 22.6934 28.16 23.2 27.5333 23.2H24.1333V26.6C24.1328 26.8526 24.0478 27.0978 23.892 27.2966C23.7362 27.4954 23.5185 27.6364 23.2733 27.6974L23.1307 27.7254L23 27.7334C22.6994 27.7334 22.4112 27.614 22.1986 27.4014C21.9861 27.1889 21.8667 26.9006 21.8667 26.6V23.2H18.4667C18.2141 23.1995 17.9689 23.1145 17.7701 22.9587C17.5713 22.8029 17.4302 22.5852 17.3693 22.34L17.3413 22.1974L17.3333 22.0667C17.3333 21.44 17.84 20.9334 18.4667 20.9334H21.8667V17.5334C21.8672 17.2808 21.9522 17.0356 22.108 16.8368C22.2638 16.638 22.4815 16.4969 22.7267 16.436L22.8693 16.408L22.9773 16.4014L23 16.4ZM17.1067 16.7334C17.3719 16.7334 17.6262 16.8387 17.8138 17.0263C18.0013 17.2138 18.1067 17.4681 18.1067 17.7334C18.1067 17.9986 18.0013 18.2529 17.8138 18.4405C17.6262 18.628 17.3719 18.7334 17.1067 18.7334H8.10133C7.83611 18.7334 7.58176 18.628 7.39422 18.4405C7.20669 18.2529 7.10133 17.9986 7.10133 17.7334C7.10133 17.4681 7.20669 17.2138 7.39422 17.0263C7.58176 16.8387 7.83611 16.7334 8.10133 16.7334H17.1067ZM22.44 11.4C22.7052 11.4 22.9596 11.5054 23.1471 11.6929C23.3346 11.8805 23.44 12.1348 23.44 12.4C23.44 12.6652 23.3346 12.9196 23.1471 13.1071C22.9596 13.2947 22.7052 13.4 22.44 13.4H8.10133C7.83611 13.4 7.58176 13.2947 7.39422 13.1071C7.20669 12.9196 7.10133 12.6652 7.10133 12.4C7.10133 12.1348 7.20669 11.8805 7.39422 11.6929C7.58176 11.5054 7.83611 11.4 8.10133 11.4H22.44Z" fill="url(#paint0_radial_188_2682)"/>
<defs>
<radialGradient id="paint0_radial_188_2682" cx="0" cy="0" r="1" gradientUnits="userSpaceOnUse" gradientTransform="translate(2.9418 7.65436) rotate(31.6681) scale(27.8008 156.533)">
<stop stop-color="#914BEC"/>
<stop offset="1" stop-color="#507AF6"/>
</radialGradient>
</defs>
</svg>
