<svg xmlns="http://www.w3.org/2000/svg" viewBox="0 0 48 48" width="48" height="48"><g fill="none"><rect width="48" height="48" fill="#F2EFFE" rx="8"/><path stroke="#9E7EFF" stroke-linecap="round" stroke-linejoin="round" stroke-miterlimit="10" stroke-width="1.8" d="M42.121 33.064V20.026l-5.492-4.694m0 26.508H4.782V20.026l4.668-3.948m9.335-7.896 4.667-3.949 4.668 3.949M4.93 19.885l15.504 12.491m20.289-12.874-15.01 12.34"/><path stroke="#9E7EFF" stroke-linecap="round" stroke-linejoin="round" stroke-miterlimit="10" stroke-width="1.8" d="M4.832 41.812 22.54 31.188a2 2 0 011.975-.047l5.958 3.198m-20.836-11.3V10.676a2 2 0 012-2H34.13a2 2 0 012 2v12.363m-21.087-8.404h15.422m-15.422 4.381h15.422m-15.422 4.38h15.422"/><circle cx="36.791" cy="35.9" r="5.963" stroke="#714EFF" stroke-linecap="round" stroke-linejoin="round" stroke-miterlimit="10" stroke-width="1.8"/><path stroke="#714EFF" stroke-linecap="round" stroke-linejoin="round" stroke-miterlimit="10" stroke-width="1.8" d="m40.657 31.296-7.946 8.753"/></g></svg>