<svg xmlns="http://www.w3.org/2000/svg" viewBox="0 0 48 48" width="48" height="48"><g fill="none"><rect width="48" height="48" fill="#E5F1FE" rx="8"/><path stroke="#3A7EFF" stroke-linecap="round" stroke-linejoin="round" stroke-miterlimit="10" stroke-width="1.8" d="m14.012 42.094-8.651-8.257 4.877-4.64 8.258 8.257-4.484 4.64Zm-2.596-11.922c.998-2.62 4.502-7.345 10.54-5.275h6.865a2.45 2.45 0 012.405 1.986v0a2.45 2.45 0 01-2.213 2.908l-4.817.381"/><path stroke="#3A7EFF" stroke-linecap="round" stroke-linejoin="round" stroke-miterlimit="10" stroke-width="1.8" d="m17.63 36.196 2.672-2.045H32.58c.345 0 .673-.15.898-.411l7.868-9.103c.726-.84.67-2.1-.126-2.874v0a2.096 2.096 0 00-2.78-.126l-7.065 5.717m-1.282 11.549.095 2.515m3.702-3.794 1.686 1.87m1.664-4.216 2.285 1.057M9.568 10.389l24.154-3.478 1.607 11.16-24.154 3.479z"/><path stroke="#3A7EFF" stroke-linecap="round" stroke-linejoin="round" stroke-miterlimit="10" stroke-width="1.4" d="M33.403 12.748c.645-.438 2.197-1.05 3.248 0 1.05 1.05 2.021.812 2.375.562"/><path fill="#154EF9" d="m27.949 16.337-.778-5.605 3.777-.524.136.977-2.592.36.185 1.335 2.398-.332.135.977-2.398.332.186 1.339 2.603-.361.135.977-3.788.525Zm-4.714.655-.777-5.605 3.777-.524.135.978-2.592.359.186 1.336 2.397-.333.136.977-2.398.333.186 1.338 2.602-.361.136.977-3.788.525Zm-5.06.701-.777-5.605 2.211-.307c.423-.058.795-.033 1.115.077.322.108.58.289.776.543.197.251.32.562.372.933.052.372.016.703-.108.994a1.576 1.576 0 01-.613.71c-.283.184-.64.306-1.07.366l-1.48.205-.133-.953 1.29-.178c.225-.032.409-.089.55-.171a.677.677 0 00.295-.326.89.89 0 00.048-.478.926.926 0 00-.177-.455.694.694 0 00-.377-.244 1.392 1.392 0 00-.58-.022l-.8.11.643 4.637-1.185.164Zm2.673-2.97 1.747 2.357-1.308.182L19.57 14.9l1.278-.178Zm-7.183 3.595-.777-5.605 3.711-.515.136.977-2.526.35.185 1.336 2.28-.316.135.977-2.28.316.321 2.316-1.185.164Z"/></g></svg>