<svg xmlns="http://www.w3.org/2000/svg" viewBox="0 0 48 48" width="48" height="48"><g fill="none"><rect width="48" height="48" fill="#FFF2DB" rx="8"/><path fill="#DF590E" d="M29.019 19.59v7.336h-1.992V19.59h1.992Zm-8.112 7.336h-2.15l2.422-7.337h2.723l2.422 7.337h-2.15L22.57 21.61h-.057l-1.605 5.316Zm-.401-2.894h4.04v1.49h-4.04v-1.49Z"/><path stroke="#F39E15" stroke-linecap="round" stroke-linejoin="round" stroke-miterlimit="10" stroke-width="1.8" d="M39.077 19.81c-1.83-6.636-7.911-11.51-15.13-11.51-8.668 0-15.694 7.026-15.694 15.693 0 8.668 7.026 15.694 15.693 15.694 7.22 0 13.3-4.875 15.13-11.512"/><path stroke="#F39E15" stroke-linecap="round" stroke-linejoin="round" stroke-miterlimit="10" stroke-width="1.8" d="M33.773 23.992c0-5.426-4.4-9.825-9.826-9.825s-9.825 4.399-9.825 9.825c0 5.427 4.399 9.825 9.825 9.825m0-28.88v6.445m0 25.235v6.446M4.884 24.05h6.446"/><path stroke="#DF590E" stroke-linecap="round" stroke-linejoin="round" stroke-miterlimit="10" stroke-width="1.8" d="m27.797 29.134 2.964 3.249 11.275-10.889"/></g></svg>