<svg xmlns="http://www.w3.org/2000/svg" viewBox="0 0 48 48" width="48" height="48"><g fill="none"><rect width="48" height="48" fill="#FAEEFE" rx="8"/><path stroke="#DA71FB" stroke-linecap="round" stroke-linejoin="round" stroke-miterlimit="10" stroke-width="1.8" d="M8.273 39.498V8.524a2 2 0 012-2H34.46l4.562 9.631v23.343a2 2 0 01-2 2H10.273a2 2 0 01-2-2ZM12.031 13.1h8.465"/><path stroke="#BE3DE7" stroke-linecap="round" stroke-linejoin="round" stroke-miterlimit="10" stroke-width="1.4" d="M29.031 21.493h4.739m-2.368 2.369v-4.738"/><path stroke="#DA71FB" stroke-linecap="round" stroke-linejoin="round" stroke-miterlimit="10" stroke-width="1.8" d="M12.031 27.766h23.844m-23.844 4.308h23.844m-23.844 4.309h23.844"/><path stroke="#BE3DE7" stroke-linecap="round" stroke-linejoin="round" stroke-miterlimit="10" stroke-width="1.8" d="m12.277 23.398 7.459-4.462 4.944 1.867 6.496-7.368"/><path stroke="#BE3DE7" stroke-linecap="round" stroke-linejoin="round" stroke-miterlimit="10" stroke-width="1.8" d="M28.363 12.205h4v4"/></g></svg>