<svg xmlns="http://www.w3.org/2000/svg" viewBox="0 0 48 48" width="48" height="48"><mask id="improved-seo-friendliness_a" fill="#fff"><path fill-rule="evenodd" d="M36.248 21.397a2.344 2.344 0 00-3.315 0l-.273.273-.272-.272a2.344 2.344 0 10-3.316 3.316L32.66 28.3l3.315-3.315.273-.273c.915-.916.915-2.4 0-3.316Z" clip-rule="evenodd"/></mask><g fill="none"><rect width="48" height="48" fill="#EFFEFA" rx="8"/><path stroke="#00C2A7" stroke-linecap="round" stroke-linejoin="round" stroke-width="1.8" d="M42.978 23.317V7.38H5.428v25.952H27.22M15.823 40.6h11.538m-7.656-7.265s1.127 6.037-2.428 7.285"/><path stroke="#00C2A7" stroke-linecap="round" stroke-width="1.8" d="M10.283 12.34h24.33m-24.33 3.345h15.535"/><ellipse cx="15.468" cy="23.861" stroke="#84E8A6" stroke-linecap="round" stroke-width="1.4" rx="5.375" ry="5.179"/><path stroke="#84E8A6" stroke-linecap="round" stroke-width="1.4" d="M15.52 18.714c-1.842 1.027-3.082 2.948-3.082 5.147 0 2.226 1.271 4.167 3.152 5.185"/><path stroke="#84E8A6" stroke-linecap="round" stroke-width="1.4" d="M15.416 18.714c1.843 1.027 3.082 2.948 3.082 5.147 0 2.226-1.27 4.167-3.151 5.185"/><path stroke="#84E8A6" stroke-linecap="round" stroke-linejoin="round" stroke-width="1.4" d="M15.46 19.07v9.661m-5.012-4.832h10.027"/><ellipse cx="32.522" cy="23.839" stroke="#00C2A7" stroke-linecap="round" stroke-width="1.8" rx="7.059" ry="6.802"/><path stroke="#00C2A7" stroke-linecap="round" stroke-linejoin="round" stroke-width="1.8" d="m35.584 30.577 1.341 1.777"/><path stroke="#00C2A7" stroke-linecap="round" stroke-linejoin="round" stroke-width="1.8" d="M0 0h4.505v6.68H0z" transform="matrix(.81898 -.57382 .60237 .79822 35.385 34.052)"/><path fill="#84E8A6" d="m32.933 21.397.99.99-.99-.99Zm3.315 0-.99.99.99-.99Zm-3.588.273-.99.99a1.4 1.4 0 001.98 0l-.99-.99Zm-.272-.272-.99.99.99-.99Zm-3.316 0 .99.99-.99-.99Zm0 3.316.99-.99-.99.99ZM32.66 28.3l-.99.99a1.4 1.4 0 001.98 0l-.99-.99Zm3.315-3.315.99.99a1.4 1.4 0 000-1.98l-.99.99Zm0 0-.99-.99a1.4 1.4 0 000 1.98l.99-.99Zm.273-.273-.99-.99.99.99Zm-2.325-2.326a.944.944 0 011.335 0l1.98-1.98a3.744 3.744 0 00-5.295 0l1.98 1.98Zm-.273.273.273-.273-1.98-1.98-.273.273 1.98 1.98Zm-2.252-.272.272.272 1.98-1.98-.273-.272-1.98 1.98Zm-1.336 0a.944.944 0 011.336 0l1.98-1.98a3.744 3.744 0 00-5.296 0l1.98 1.98Zm0 1.336a.944.944 0 010-1.336l-1.98-1.98a3.744 3.744 0 000 5.295l1.98-1.98Zm3.588 3.587-3.588-3.587-1.98 1.98 3.588 3.587 1.98-1.98Zm1.335-3.315L31.67 27.31l1.98 1.98 3.315-3.315-1.98-1.98Zm0 1.98 1.98-1.98-1.98 1.98Zm.273-2.253-.273.273 1.98 1.98.273-.273-1.98-1.98Zm0-1.336a.944.944 0 010 1.336l1.98 1.98a3.744 3.744 0 000-5.296l-1.98 1.98Z" mask="url(#improved-seo-friendliness_a)"/></g></svg>