<svg xmlns="http://www.w3.org/2000/svg" viewBox="0 0 48 48" width="48" height="48"><g fill="none"><rect width="48" height="48" fill="#FDF1EC" rx="8"/><path stroke="#FF7E5B" stroke-linecap="round" stroke-linejoin="round" stroke-width="1.8" d="M16.349 36.489h8.943a1.71 1.71 0 001.205-.495 1.68 1.68 0 00.499-1.194V21.283c0-.448-.18-.878-.5-1.194a1.71 1.71 0 00-1.204-.495H7.422a1.71 1.71 0 00-1.204.495c-.32.317-.5.746-.5 1.194V34.8c0 .448.18.877.5 1.194.32.317.752.495 1.204.495h2.42v4.612l6.507-4.612Z"/><path fill="#CC5231" fill-rule="evenodd" d="M9.761 27.965a3.778 3.778 0 013.778-3.778h5.219a3.686 3.686 0 012.032 6.76l-4.146 2.741a.252.252 0 01-.39-.21v-.938a.797.797 0 00-.798-.797h-1.917a3.778 3.778 0 01-3.778-3.778Zm4.529 0c0 .696-.54 1.26-1.208 1.26-.667 0-1.208-.564-1.208-1.26 0-.695.541-1.259 1.208-1.259.667 0 1.208.564 1.208 1.26Zm4.833 1.26c.667 0 1.207-.564 1.207-1.26 0-.695-.54-1.259-1.207-1.259-.668 0-1.208.564-1.208 1.26 0 .695.54 1.259 1.207 1.259Z" clip-rule="evenodd"/><path stroke="#FF7E5B" stroke-linecap="round" stroke-linejoin="round" stroke-width="1.8" d="M14.369 14.84v-4.544a2.297 2.297 0 01.69-1.644 2.333 2.333 0 011.664-.67H40.04a2.35 2.35 0 011.706.646 2.313 2.313 0 01.714 1.668v17.606a2.295 2.295 0 01-.675 1.65 2.336 2.336 0 01-1.658.685h-2.182v6.616l-4.973-4.058"/><path stroke="#FF7E5B" stroke-linecap="round" stroke-width="1.8" d="M37.574 24.768H26.936m10.638-4.841H26.936"/><circle cx="21.618" cy="14.248" r="1.722" fill="#FF7E5B"/><circle cx="28.66" cy="14.248" r="1.722" fill="#FF7E5B"/><circle cx="35.702" cy="14.248" r="1.722" fill="#FF7E5B"/></g></svg>